<svg xmlns="http://www.w3.org/2000/svg" viewBox="0 0 41.956 42.387">
<defs><style>.a{fill:#73d7ff;}.b{fill:#fff;}.c{fill:#003575;}</style></defs><g transform="translate(-0.281)"><path class="a" d="M51.492,45.572H46.8L45.69,51.137l-7.143-5.565H25V27H51.492Z" transform="translate(-10.167 -11.105)"/><path class="b" d="M2,20.6H6.695l.952,5.539L14.64,20.6l.722-3.827L27.9,16.536V2H2Z" transform="translate(-0.707 -0.823)"/><g transform="translate(0.281)"><path class="c" d="M36.045,42.387c-.232,0-.364-.133-.6-.234L27.8,35.645c-.132-.133-.132-.133-.232-.133H14.62a.839.839,0,0,1-.861-.868V22.628c0-.133-.132-.367-.232-.367H13.3c-.132,0-.232,0-.232.133L7.235,27.3a.879.879,0,0,1-.6.234.421.421,0,0,1-.364-.133.935.935,0,0,1-.6-.868v-5.34a.536.536,0,0,0-.5-.5H1.142a.839.839,0,0,1-.861-.868V.868A.839.839,0,0,1,1.142,0H28a.839.839,0,0,1,.861.868V14.351a.536.536,0,0,0,.5.5H41.376a.839.839,0,0,1,.861.868V34.71a.839.839,0,0,1-.861.868H37.37a.536.536,0,0,0-.5.5v5.407a1.026,1.026,0,0,1-.5.868C36.409,42.387,36.144,42.387,36.045,42.387ZM15.978,16.654a.536.536,0,0,0-.5.5V33.442a.536.536,0,0,0,.5.5H28c.232,0,.364.133.6.234l5.828,4.906c.132.133.132.133.232.133h.232c.132-.133.232-.234.232-.367V34.677a.839.839,0,0,1,.861-.868h4.007a.536.536,0,0,0,.5-.5V17.155a.536.536,0,0,0-.5-.5ZM2.467,1.836a.536.536,0,0,0-.5.5V18.623a.536.536,0,0,0,.5.5H6.474a.839.839,0,0,1,.861.868v3.9c0,.134.132.367.232.367H7.8c.132,0,.232,0,.232-.134l5.365-4.539a.428.428,0,0,0,.132-.367V15.787a.839.839,0,0,1,.861-.868H26.409a.536.536,0,0,0,.5-.5V2.2a.536.536,0,0,0-.5-.5H2.467Z" transform="translate(-0.281)"/><rect class="c" width="1.821" height="1.836" transform="translate(26.889 24.364)"/><rect class="c" width="1.821" height="1.836" transform="translate(32.22 24.364)"/><rect class="c" width="1.821" height="1.836" transform="translate(21.524 24.364)"/><rect class="c" width="1.821" height="1.836" transform="translate(13.378 9.445)"/><rect class="c" width="1.821" height="1.836" transform="translate(18.743 9.445)"/><rect class="c" width="1.821" height="1.836" transform="translate(8.047 9.445)"/></g></g>
</svg>